<svg width="35" height="34" viewBox="0 0 35 34" fill="none" xmlns="http://www.w3.org/2000/svg">
<path d="M25.5 2H9.5C6.18629 2 3.5 4.68629 3.5 8V24C3.5 27.3137 6.18629 30 9.5 30H25.5C28.8137 30 31.5 27.3137 31.5 24V8C31.5 4.68629 28.8137 2 25.5 2Z" fill="white"/>
<path d="M25.5 2H9.5C6.18629 2 3.5 4.68629 3.5 8V24C3.5 27.3137 6.18629 30 9.5 30H25.5C28.8137 30 31.5 27.3137 31.5 24V8C31.5 4.68629 28.8137 2 25.5 2Z" stroke="#F0F0ED" stroke-linecap="round"/>
<path d="M23.5 22L20.6 19.1M22.2 15.3C22.2 16.7189 21.6363 18.0797 20.633 19.083C19.6297 20.0863 18.2689 20.65 16.85 20.65C15.4311 20.65 14.0703 20.0863 13.067 19.083C12.0637 18.0797 11.5 16.7189 11.5 15.3C11.5 13.8811 12.0637 12.5203 13.067 11.517C14.0703 10.5137 15.4311 9.95 16.85 9.95C18.2689 9.95 19.6297 10.5137 20.633 11.517C21.6363 12.5203 22.2 13.8811 22.2 15.3Z" stroke="#D14200" stroke-linecap="round" stroke-linejoin="round"/>
<path d="M16.8 12C18.7 12 20.2 13.5 20.2 15.3" stroke="#F35B22" stroke-linecap="round" stroke-linejoin="round"/>
</svg>
