<svg width="35" height="34" viewBox="0 0 35 34" fill="none" xmlns="http://www.w3.org/2000/svg">
<path d="M25.5 2H9.5C6.18629 2 3.5 4.68629 3.5 8V24C3.5 27.3137 6.18629 30 9.5 30H25.5C28.8137 30 31.5 27.3137 31.5 24V8C31.5 4.68629 28.8137 2 25.5 2Z" fill="white"/>
<path d="M25.5 2H9.5C6.18629 2 3.5 4.68629 3.5 8V24C3.5 27.3137 6.18629 30 9.5 30H25.5C28.8137 30 31.5 27.3137 31.5 24V8C31.5 4.68629 28.8137 2 25.5 2Z" fill="url(#paint0_linear_1_466)" fill-opacity="0.02"/>
<path d="M25.5 2H9.5C6.18629 2 3.5 4.68629 3.5 8V24C3.5 27.3137 6.18629 30 9.5 30H25.5C28.8137 30 31.5 27.3137 31.5 24V8C31.5 4.68629 28.8137 2 25.5 2Z" stroke="#F0F0ED" stroke-linecap="round"/>
<path d="M15.1001 13.6001H15.1081M19.8998 18.3998H19.9078M20.6998 12.8001L14.3001 19.1998M15.2616 22.8803C15.5238 22.8456 15.7886 22.9167 15.9975 23.0776L16.96 23.8162C17.2782 24.0606 17.7208 24.0606 18.0381 23.8162L19.0371 23.0492C19.2237 22.9061 19.4592 22.843 19.6921 22.8741L20.9417 23.0385C21.339 23.0909 21.722 22.8696 21.8758 22.499L22.3566 21.3364C22.4464 21.1187 22.6188 20.9462 22.8366 20.8565L23.9991 20.3756C24.3697 20.2227 24.591 19.8388 24.5386 19.4415L24.3804 18.2371C24.3457 17.9749 24.4168 17.71 24.5777 17.5012L25.3162 16.5386C25.5606 16.2204 25.5606 15.7777 25.3162 15.4604L24.5492 14.4614C24.4061 14.2748 24.343 14.0392 24.3741 13.8063L24.5386 12.5567C24.591 12.1594 24.3697 11.7763 23.9991 11.6225L22.8366 11.1417C22.6188 11.0519 22.4464 10.8795 22.3566 10.6617L21.8758 9.49914C21.7229 9.1285 21.339 8.90718 20.9417 8.95962L19.6921 9.12405C19.4592 9.15605 19.2237 9.09295 19.038 8.95073L18.039 8.18368C17.7208 7.93926 17.2782 7.93926 16.9609 8.18368L15.9619 8.95073C15.7753 9.09295 15.5398 9.15605 15.3069 9.12583L14.0573 8.9614C13.66 8.90896 13.277 9.13028 13.1232 9.50091L12.6433 10.6635C12.5526 10.8804 12.3802 11.0528 12.1633 11.1434L11.0008 11.6234C10.6302 11.7772 10.4089 12.1603 10.4614 12.5576L10.6258 13.8072C10.656 14.0401 10.5929 14.2756 10.4507 14.4614L9.68367 15.4604C9.43926 15.7786 9.43926 16.2213 9.68367 16.5386L10.4507 17.5376C10.5938 17.7243 10.6569 17.9598 10.6258 18.1927L10.4614 19.4423C10.4089 19.8396 10.6302 20.2227 11.0008 20.3765L12.1633 20.8573C12.3811 20.9471 12.5535 21.1195 12.6433 21.3373L13.1241 22.4999C13.277 22.8705 13.6609 23.0918 14.0582 23.0394L15.2616 22.8803ZM15.5001 13.6001C15.5001 13.821 15.321 14.0001 15.1001 14.0001C14.8792 14.0001 14.7001 13.821 14.7001 13.6001C14.7001 13.3792 14.8792 13.2001 15.1001 13.2001C15.321 13.2001 15.5001 13.3792 15.5001 13.6001ZM20.2998 18.3998C20.2998 18.6207 20.1207 18.7998 19.8998 18.7998C19.6789 18.7998 19.4998 18.6207 19.4998 18.3998C19.4998 18.1789 19.6789 17.9998 19.8998 17.9998C20.1207 17.9998 20.2998 18.1789 20.2998 18.3998Z" stroke="#BE400F" stroke-width="0.999949" stroke-linecap="round" stroke-linejoin="round"/>
<path d="M15.1449 13.6436H15.1529M19.9447 18.4433H19.9527M20.7446 12.8436L14.345 19.2433M15.5449 13.6436C15.5449 13.8645 15.3658 14.0436 15.1449 14.0436C14.924 14.0436 14.745 13.8645 14.745 13.6436C14.745 13.4227 14.924 13.2436 15.1449 13.2436C15.3658 13.2436 15.5449 13.4227 15.5449 13.6436ZM20.3447 18.4433C20.3447 18.6642 20.1656 18.8433 19.9447 18.8433C19.7238 18.8433 19.5447 18.6642 19.5447 18.4433C19.5447 18.2224 19.7238 18.0434 19.9447 18.0434C20.1656 18.0434 20.3447 18.2224 20.3447 18.4433Z" stroke="#F35B22" stroke-linecap="round" stroke-linejoin="round"/>
<defs>
<linearGradient id="paint0_linear_1_466" x1="26.0678" y1="31.882" x2="7.0776" y2="20.3847" gradientUnits="userSpaceOnUse">
<stop stop-color="#484946"/>
<stop offset="1" stop-color="#6E6F6C"/>
</linearGradient>
</defs>
</svg>
