<svg width="35" height="34" viewBox="0 0 35 34" fill="none" xmlns="http://www.w3.org/2000/svg">
<path d="M25.5 2H9.5C6.18629 2 3.5 4.68629 3.5 8V24C3.5 27.3137 6.18629 30 9.5 30H25.5C28.8137 30 31.5 27.3137 31.5 24V8C31.5 4.68629 28.8137 2 25.5 2Z" fill="white"/>
<path d="M25.5 2H9.5C6.18629 2 3.5 4.68629 3.5 8V24C3.5 27.3137 6.18629 30 9.5 30H25.5C28.8137 30 31.5 27.3137 31.5 24V8C31.5 4.68629 28.8137 2 25.5 2Z" stroke="#F0F0ED" stroke-linecap="round"/>
<mask id="mask0_1_274" style="mask-type:luminance" maskUnits="userSpaceOnUse" x="9" y="8" width="17" height="16">
<path d="M18.9 8H16.1C12.4549 8 9.5 10.9549 9.5 14.6V17.4C9.5 21.0451 12.4549 24 16.1 24H18.9C22.5451 24 25.5 21.0451 25.5 17.4V14.6C25.5 10.9549 22.5451 8 18.9 8Z" fill="white"/>
</mask>
<g mask="url(#mask0_1_274)">
<path d="M20.9 20C22.5 19 23.5 17.2 23.5 15.2C23.4738 13.6261 22.8301 12.1255 21.7077 11.0218C20.5853 9.91816 19.0741 9.29977 17.5 9.29999C15.9259 9.29977 14.4147 9.91816 13.2923 11.0218C12.1699 12.1255 11.5262 13.6261 11.5 15.2C11.5 17.2 12.5 18.9 14.1 20M15.1 17.3C14.8019 17.0341 14.5599 16.7115 14.3882 16.3508C14.2165 15.9902 14.1185 15.599 14.1 15.2C14.1 13.4 15.7 12 17.5 12C19.3 12 20.8 13.4 20.8 15.2C20.7887 15.9913 20.4652 16.7461 19.9 17.3M17.5 22.7C16.8 22.7 16.2 22.1 16.2 21.3V20C16.2 19.6552 16.337 19.3245 16.5808 19.0807C16.8246 18.837 17.1552 18.7 17.5 18.7C17.8448 18.7 18.1754 18.837 18.4192 19.0807C18.663 19.3245 18.8 19.6552 18.8 20V21.3C18.8 22.1 18.2 22.7 17.5 22.7ZM18.2 15.3C18.2 15.3919 18.1819 15.4829 18.1467 15.5679C18.1115 15.6528 18.06 15.73 17.995 15.795C17.93 15.86 17.8528 15.9115 17.7679 15.9467C17.6829 15.9819 17.5919 16 17.5 16C17.4081 16 17.3171 15.9819 17.2321 15.9467C17.1472 15.9115 17.07 15.86 17.005 15.795C16.94 15.73 16.8885 15.6528 16.8533 15.5679C16.8181 15.4829 16.8 15.3919 16.8 15.3C16.8 15.1143 16.8738 14.9363 17.005 14.805C17.1363 14.6737 17.3143 14.6 17.5 14.6C17.6857 14.6 17.8637 14.6737 17.995 14.805C18.1262 14.9363 18.2 15.1143 18.2 15.3Z" stroke="#D14200" stroke-linecap="round" stroke-linejoin="round"/>
<path d="M16.2 20C16.2 19.6552 16.337 19.3245 16.5808 19.0807C16.8246 18.8369 17.1552 18.7 17.5 18.7C17.8448 18.7 18.1755 18.8369 18.4193 19.0807C18.663 19.3245 18.8 19.6552 18.8 20V21.3C18.8 21.6448 18.663 21.9754 18.4193 22.2192C18.1755 22.463 17.8448 22.6 17.5 22.6C17.1552 22.6 16.8246 22.463 16.5808 22.2192C16.337 21.9754 16.2 21.6448 16.2 21.3V20ZM17.5 16C17.6857 16 17.8637 15.9262 17.995 15.7949C18.1263 15.6637 18.2 15.4856 18.2 15.3C18.2 15.1143 18.1263 14.9363 17.995 14.805C17.8637 14.6737 17.6857 14.6 17.5 14.6C17.3144 14.6 17.1363 14.6737 17.005 14.805C16.8738 14.9363 16.8 15.1143 16.8 15.3C16.8 15.4856 16.8738 15.6637 17.005 15.7949C17.1363 15.9262 17.3144 16 17.5 16Z" stroke="#F35B22" stroke-linecap="round" stroke-linejoin="round"/>
</g>
</svg>
